<!--<?xml version="1.0" encoding="UTF-8"?>
<!DOCTYPE svg PUBLIC "-//W3C//DTD SVG 1.1//EN" "http://www.w3.org/Graphics/SVG/1.1/DTD/svg11.dtd">
<svg xmlns="http://www.w3.org/2000/svg" version="1.1" width="24px" height="24px" style="shape-rendering:geometricPrecision; text-rendering:geometricPrecision; image-rendering:optimizeQuality; fill-rule:evenodd; clip-rule:evenodd" fill="#3b3b3b" xmlns:xlink="http://www.w3.org/1999/xlink">
<g><path style="opacity:0.943" fill="#000000" d="M 106.5,-0.5 C 186.833,-0.5 267.167,-0.5 347.5,-0.5C 356.781,2.61613 362.948,8.94947 366,18.5C 366.667,104.5 366.667,190.5 366,276.5C 361.144,282.76 355.81,283.093 350,277.5C 349.667,276.167 349.333,274.833 349,273.5C 348.667,189.5 348.333,105.5 348,21.5C 346.833,20.3333 345.667,19.1667 344.5,18C 269.501,17.5 194.501,17.3333 119.5,17.5C 119.667,38.5026 119.5,59.5026 119,80.5C 116.5,92.3333 109.333,99.5 97.5,102C 76.5026,102.5 55.5026,102.667 34.5,102.5C 34.3333,231.5 34.5,360.5 35,489.5C 36.214,491.049 37.714,492.215 39.5,493C 118.833,493.667 198.167,493.667 277.5,493C 253.308,468.371 247.141,439.871 259,407.5C 262.165,401.166 265.831,395.166 270,389.5C 304.167,355.333 338.333,321.167 372.5,287C 404.154,265.001 435.821,265.001 467.5,287C 497.06,315.915 502.227,348.748 483,385.5C 481.088,387.657 479.421,389.991 478,392.5C 443.833,426.667 409.667,460.833 375.5,495C 364.81,503.514 352.81,509.014 339.5,511.5C 238.167,511.5 136.833,511.5 35.5,511.5C 26.1841,508.349 20.0174,502.016 17,492.5C 16.3333,358.167 16.3333,223.833 17,89.5C 46.3673,58.9663 76.2006,28.9663 106.5,-0.5 Z M 100.5,30.5 C 101.166,38.1594 101.5,45.9927 101.5,54C 101.624,62.9049 101.124,71.7383 100,80.5C 98.6811,82.4875 96.8477,83.6541 94.5,84C 78.8333,84.6667 63.1667,84.6667 47.5,84C 65.3684,66.2986 83.0351,48.4652 100.5,30.5 Z M 411.5,288.5 C 445.852,286.742 467.352,302.408 476,335.5C 478.103,350.323 475.103,363.989 467,376.5C 451.696,392.805 436.029,408.805 420,424.5C 393.5,398 367,371.5 340.5,345C 355.5,330 370.5,315 385.5,300C 393.438,294.307 402.104,290.473 411.5,288.5 Z M 326.5,358.5 C 327.239,358.369 327.906,358.536 328.5,359C 354.528,385.362 380.861,411.362 407.5,437C 391.805,453.029 375.805,468.696 359.5,484C 331.624,499.651 306.457,496.151 284,473.5C 272.289,458.315 268.623,441.315 273,422.5C 275.279,415.276 278.612,408.609 283,402.5C 297.702,387.965 312.202,373.299 326.5,358.5 Z"/></g>
<g><path style="opacity:0.94" fill="#000000" d="M 191.5,50.5 C 228.168,50.3333 264.835,50.5 301.5,51C 307.302,54.7086 308.469,59.5419 305,65.5C 303.352,66.717 301.519,67.5503 299.5,68C 264.5,68.6667 229.5,68.6667 194.5,68C 185.141,63.7157 184.141,57.8824 191.5,50.5 Z"/></g>
<g><path style="opacity:0.938" fill="#000000" d="M 192.5,84.5 C 228.835,84.3333 265.168,84.5 301.5,85C 307.302,88.7086 308.469,93.5419 305,99.5C 303.581,100.46 302.081,101.293 300.5,102C 264.833,102.667 229.167,102.667 193.5,102C 187.189,99.4118 185.356,94.9118 188,88.5C 189.397,86.9297 190.897,85.5964 192.5,84.5 Z"/></g>
<g><path style="opacity:0.938" fill="#000000" d="M 192.5,118.5 C 228.835,118.333 265.168,118.5 301.5,119C 309.5,124.667 309.5,130.333 301.5,136C 265.167,136.667 228.833,136.667 192.5,136C 184.581,130.173 184.581,124.34 192.5,118.5 Z"/></g>
<g><path style="opacity:0.944" fill="#000000" d="M 63.5,161.5 C 148.834,161.333 234.167,161.5 319.5,162C 324.758,166.098 325.591,170.931 322,176.5C 320.352,177.717 318.519,178.55 316.5,179C 233.167,179.667 149.833,179.667 66.5,179C 59.1371,176.436 57.1371,171.603 60.5,164.5C 61.7701,163.712 62.7701,162.712 63.5,161.5 Z"/></g>
<g><path style="opacity:0.874" fill="#000000" d="M 66.5,203.5 C 74.4567,204.294 77.6234,208.628 76,216.5C 73.1034,221.155 68.9367,222.655 63.5,221C 56.2884,213.69 57.2884,207.857 66.5,203.5 Z"/></g>
<g><path style="opacity:0.942" fill="#000000" d="M 100.5,203.5 C 152.501,203.333 204.501,203.5 256.5,204C 264.046,206.463 266.046,211.296 262.5,218.5C 261.5,219.333 260.5,220.167 259.5,221C 205.5,221.667 151.5,221.667 97.5,221C 92.242,216.902 91.4087,212.069 95,206.5C 96.8761,205.391 98.7095,204.391 100.5,203.5 Z"/></g>
<g><path style="opacity:0.878" fill="#000000" d="M 67.5,237.5 C 76.8783,240.31 78.8783,245.81 73.5,254C 65.5286,257.735 60.5286,255.401 58.5,247C 59.0239,241.312 62.0239,238.146 67.5,237.5 Z"/></g>
<g><path style="opacity:0.942" fill="#000000" d="M 101.5,237.5 C 153.168,237.333 204.834,237.5 256.5,238C 264.381,240.941 266.215,246.108 262,253.5C 261.25,254.126 260.416,254.626 259.5,255C 205.5,255.667 151.5,255.667 97.5,255C 92.6501,251.297 91.6501,246.797 94.5,241.5C 96.5251,239.436 98.8584,238.102 101.5,237.5 Z"/></g>
<g><path style="opacity:0.873" fill="#000000" d="M 63.5,272.5 C 73.1583,270.993 77.325,274.993 76,284.5C 72.0091,290.581 67.0091,291.581 61,287.5C 57.5255,281.763 58.3588,276.763 63.5,272.5 Z"/></g>
<g><path style="opacity:0.942" fill="#000000" d="M 97.5,272.5 C 151.501,272.333 205.501,272.5 259.5,273C 264.967,277.004 265.8,281.838 262,287.5C 260.352,288.717 258.519,289.55 256.5,290C 204.5,290.667 152.5,290.667 100.5,290C 95.5433,289.113 92.8766,286.113 92.5,281C 93.1498,277.528 94.8165,274.695 97.5,272.5 Z"/></g>
<g><path style="opacity:0.874" fill="#000000" d="M 63.5,306.5 C 73.1583,304.993 77.325,308.993 76,318.5C 72.1068,324.907 67.1068,325.907 61,321.5C 57.5066,315.805 58.3399,310.805 63.5,306.5 Z"/></g>
<g><path style="opacity:0.942" fill="#000000" d="M 97.5,306.5 C 151.501,306.333 205.501,306.5 259.5,307C 265.755,311.948 266.088,317.282 260.5,323C 259.167,323.333 257.833,323.667 256.5,324C 204.5,324.667 152.5,324.667 100.5,324C 95.5433,323.113 92.8766,320.113 92.5,315C 93.1498,311.528 94.8165,308.695 97.5,306.5 Z"/></g>
<g><path style="opacity:0.943" fill="#000000" d="M 67.5,365.5 C 130.501,365.333 193.501,365.5 256.5,366C 262.38,367.587 264.88,371.421 264,377.5C 263.315,380.057 261.815,381.891 259.5,383C 198.501,383.5 137.501,383.667 76.5,383.5C 76.6666,413.169 76.5,442.835 76,472.5C 73.1034,477.155 68.9367,478.655 63.5,477C 60.8917,475.622 59.3917,473.455 59,470.5C 58.3333,437.833 58.3333,405.167 59,372.5C 60.4529,368.372 63.2863,366.039 67.5,365.5 Z"/></g>
<g><path style="opacity:0.936" fill="#000000" d="M 157.5,400.5 C 162.946,399.339 167.113,401.006 170,405.5C 170.5,412.158 170.666,418.825 170.5,425.5C 176.842,425.334 183.175,425.5 189.5,426C 195.443,428.83 197.276,433.33 195,439.5C 193.786,441.049 192.286,442.215 190.5,443C 183.842,443.5 177.175,443.666 170.5,443.5C 170.666,450.175 170.5,456.842 170,463.5C 165.449,470.471 160.116,471.138 154,465.5C 152.609,458.254 152.109,450.921 152.5,443.5C 145.825,443.666 139.158,443.5 132.5,443C 126.698,439.291 125.531,434.458 129,428.5C 130.419,427.54 131.919,426.707 133.5,426C 139.825,425.5 146.158,425.334 152.5,425.5C 152.334,419.158 152.5,412.825 153,406.5C 153.804,403.854 155.304,401.854 157.5,400.5 Z"/></g>
</svg> -->
<svg xmlns="http://www.w3.org/2000/svg" height="24px" viewBox="0 0 24 24" width="24px" fill="#3b3b3b"><path d="M0 0h24v24H0V0z" fill="none"/><path d="M17 3H7c-1.1 0-2 .9-2 2v16l7-3 7 3V5c0-1.1-.9-2-2-2zm0 15l-5-2.18L7 18V5h10v13z"/></svg>
